<?xml version="1.0" standalone="no"?>
<!DOCTYPE svg PUBLIC "-//W3C//DTD SVG 20010904//EN"
 "http://www.w3.org/TR/2001/REC-SVG-20010904/DTD/svg10.dtd">
<svg version="1.0" xmlns="http://www.w3.org/2000/svg"
 width="1280.000000pt" height="640.000000pt" viewBox="0 0 1280.000000 640.000000"
 preserveAspectRatio="xMidYMid meet">

<g transform="translate(0.000000,640.000000) scale(0.100000,-0.100000)"
fill="#000000" stroke="none">
<path d="M7946 5555 c-15 -8 -37 -15 -47 -15 -10 0 -30 -11 -46 -24 -25 -21
-27 -30 -28 -92 0 -38 2 -75 5 -83 3 -10 -7 -17 -34 -24 -49 -12 -126 -86
-126 -121 0 -27 16 -36 63 -36 66 0 136 -33 149 -70 2 -8 14 -6 36 7 24 14 36
15 49 7 22 -13 29 -65 13 -94 -14 -27 2 -50 36 -50 23 0 22 -2 -19 -53 -24
-29 -56 -83 -72 -120 -16 -37 -33 -67 -36 -67 -4 0 -10 13 -14 30 -8 38 -14
41 -58 33 -33 -5 -37 -9 -37 -35 0 -25 -3 -29 -17 -23 -50 20 -166 44 -244 51
-79 6 -89 5 -95 -11 -11 -28 -102 -65 -161 -65 -28 0 -55 -4 -58 -10 -3 -5
-13 -10 -21 -10 -18 0 -107 -62 -157 -109 -22 -20 -59 -64 -84 -99 -25 -35
-47 -61 -49 -59 -2 1 -28 52 -59 112 -31 60 -71 129 -89 154 -26 35 -33 53
-29 73 21 111 -68 160 -248 137 -46 -5 -120 -18 -164 -29 -73 -17 -258 -40
-440 -55 -38 -3 -85 -8 -102 -11 l-33 -5 0 57 c0 54 -1 56 -17 41 -30 -26 -68
-30 -107 -12 -48 23 -59 45 -47 93 6 20 13 51 16 69 3 18 16 49 30 69 14 20
25 49 25 64 0 38 6 40 48 19 20 -11 51 -19 69 -19 27 0 35 5 44 26 11 30 4 60
-19 87 -11 13 -31 17 -81 17 -42 0 -85 7 -119 20 -102 39 -179 20 -213 -53
-10 -23 -19 -52 -19 -64 0 -11 -16 -40 -35 -63 -19 -23 -36 -46 -36 -51 -1 -5
-2 -21 -4 -36 -1 -16 -5 -45 -9 -65 -7 -32 -5 -40 17 -62 69 -69 168 -30 138
55 -14 40 -14 104 -1 130 33 60 96 -33 87 -126 -3 -27 -11 -73 -17 -102 -12
-57 -10 -56 -100 -33 -19 4 -64 11 -100 15 -71 7 -360 89 -481 137 l-76 30 0
76 c0 42 4 83 10 90 16 20 52 14 77 -13 32 -34 54 -32 68 9 15 41 27 47 117
55 l70 6 3 52 c4 67 -16 105 -71 137 -123 71 -294 57 -347 -29 -12 -19 -37
-50 -56 -69 -22 -22 -34 -43 -34 -62 0 -15 23 -70 50 -122 28 -52 50 -96 48
-97 -2 -2 -29 3 -60 12 -98 27 -173 -5 -184 -79 -10 -62 30 -133 132 -229 275
-260 270 -252 239 -338 -17 -49 -2 -45 23 6 9 20 22 35 27 34 12 -2 12 -46 1
-78 -11 -35 14 -30 121 23 67 33 97 44 105 36 8 -8 -1 -21 -28 -46 -22 -20
-47 -39 -56 -42 -10 -3 -18 -9 -18 -14 0 -5 15 -4 33 2 153 49 193 21 47 -33
l-65 -24 70 -3 c124 -5 126 -25 4 -46 l-74 -12 58 -8 c97 -13 60 -46 -53 -46
-33 0 -203 -51 -282 -84 -21 -9 -38 -23 -38 -30 0 -8 -8 -17 -17 -20 -39 -13
-158 -325 -187 -489 -16 -92 -14 -109 15 -142 15 -17 17 -34 12 -127 l-6 -107
-71 -13 c-41 -7 -149 -13 -256 -13 -155 0 -191 3 -224 17 -37 17 -62 16 -51
-2 9 -15 -13 -346 -34 -505 -17 -130 -100 -641 -187 -1144 -25 -148 -26 -155
-8 -168 39 -28 126 -53 188 -53 l63 0 92 293 c118 372 110 347 176 585 72 261
118 460 141 606 10 67 21 109 25 99 9 -25 38 -301 48 -453 8 -120 -2 -324 -39
-785 -5 -71 -10 -137 -10 -146 0 -10 17 -23 45 -33 25 -10 45 -22 45 -28 0 -6
-10 -62 -21 -125 -12 -63 -19 -116 -16 -119 3 -3 36 -16 73 -29 75 -25 173
-40 190 -28 6 5 54 145 107 313 157 497 168 544 196 794 l17 151 12 -96 c25
-203 24 -338 -6 -734 -25 -327 -27 -382 -15 -392 29 -23 151 -46 208 -38 30 3
55 8 55 11 0 2 24 115 54 251 81 368 115 554 127 698 17 204 -3 545 -48 823
-11 70 -13 106 -6 110 6 4 29 36 52 71 47 73 47 77 26 259 -15 124 -14 129 8
227 l22 100 40 5 c55 8 126 44 198 101 33 27 63 49 67 49 4 0 19 -89 35 -197
31 -219 31 -208 -9 -583 -49 -466 -60 -607 -60 -820 -1 -127 4 -252 12 -305
43 -298 96 -624 120 -735 11 -51 74 -84 140 -75 79 11 78 8 64 137 -45 430
-39 803 18 1003 35 123 211 615 221 615 3 0 19 -46 36 -102 17 -57 54 -178 82
-270 71 -234 89 -332 101 -559 10 -185 3 -510 -16 -725 l-6 -70 39 -12 c58
-17 90 -15 133 9 45 25 42 14 75 242 46 319 72 544 88 782 8 105 -15 473 -58
950 -12 139 -19 259 -15 271 9 21 44 227 55 320 6 51 7 52 80 98 40 25 79 46
87 46 8 0 38 12 67 26 28 15 54 24 57 22 11 -11 53 -226 79 -398 37 -251 38
-255 84 -286 36 -23 39 -28 44 -88 5 -56 -1 -89 -54 -287 -117 -442 -160 -669
-162 -864 -1 -140 20 -239 106 -484 27 -80 67 -202 87 -271 l37 -125 100 1
c55 1 111 4 125 7 24 6 25 8 16 69 -18 131 -61 390 -94 573 l-35 190 20 86
c11 47 62 202 114 345 52 142 96 266 99 274 6 16 10 -21 28 -225 26 -305 67
-480 225 -950 106 -318 123 -360 142 -363 23 -3 158 41 180 59 6 6 10 16 8 22
-3 7 -34 185 -70 397 -47 272 -68 423 -72 515 -3 72 -3 128 0 125 3 -3 24 -95
46 -205 53 -266 167 -764 176 -773 14 -14 151 -7 209 11 l59 18 -7 92 c-8 112
-63 658 -76 764 -11 87 -7 105 10 42 48 -183 100 -358 208 -698 l86 -273 76 4
c81 5 190 45 190 70 0 7 -29 185 -64 394 -65 385 -73 446 -101 834 -28 391
-65 874 -71 930 -6 54 -5 55 26 74 38 22 70 71 70 107 0 28 -25 79 -111 229
-30 52 -70 129 -88 170 -18 41 -29 64 -26 50 31 -124 27 -237 -11 -275 -25
-25 -130 -20 -216 11 -94 34 -287 130 -406 203 -83 50 -92 59 -90 83 2 21 -6
35 -30 55 -27 23 -41 52 -76 153 -24 69 -53 154 -65 189 -12 35 -19 66 -15 70
13 13 81 -82 113 -161 40 -96 66 -138 87 -138 8 0 14 4 14 9 0 11 25 4 110
-29 74 -28 191 -71 214 -78 24 -7 20 1 -54 93 -115 144 -190 297 -190 387 0
51 32 121 66 143 14 9 45 18 70 19 45 3 67 15 94 51 24 31 28 48 17 78 -21 62
-110 83 -213 52 -70 -21 -78 -19 -42 14 30 26 32 34 32 86 -1 44 -9 72 -37
126 l-35 69 28 30 c47 51 56 155 15 195 -13 14 -30 25 -36 25 -7 0 -20 6 -28
14 -26 23 -64 28 -95 11z m-436 -844 c0 -10 -9 -38 -20 -62 -31 -70 -24 -72
37 -8 31 32 60 59 65 59 21 0 4 -41 -37 -89 -65 -76 -58 -82 25 -25 39 27 55
33 64 24 11 -12 2 -23 -68 -78 -39 -30 -29 -36 19 -12 78 40 90 16 18 -33 -27
-17 -66 -52 -88 -76 -22 -24 -68 -71 -102 -105 l-63 -62 -46 47 -46 47 22 30
c22 30 22 32 7 71 -13 31 -14 46 -5 71 6 17 8 51 5 75 -2 24 -2 47 1 50 8 7
32 -15 32 -31 0 -7 5 -25 10 -39 9 -24 12 -25 27 -14 9 8 40 51 70 97 53 82
73 99 73 63z m-2281 -98 c26 -81 43 -88 34 -14 -6 50 11 101 28 84 5 -5 16
-49 24 -98 25 -143 25 -142 70 -95 25 27 55 40 55 25 0 -3 -9 -23 -20 -45 -11
-22 -20 -49 -20 -60 0 -28 -26 -77 -47 -89 -11 -6 -17 -21 -16 -45 1 -31 -5
-42 -45 -76 -26 -22 -49 -40 -52 -40 -7 0 -80 172 -92 218 -5 20 -27 67 -49
103 -21 36 -39 71 -39 77 0 24 28 11 55 -24 15 -19 29 -33 31 -31 3 3 -9 33
-27 67 -23 47 -28 65 -20 73 8 8 14 9 19 1 4 -5 24 -36 46 -67 21 -32 40 -56
42 -54 3 2 -5 33 -16 68 -25 80 -25 101 -2 97 11 -2 25 -26 41 -75z m1034
-223 c-2 -61 -8 -99 -19 -115 -22 -34 -4 -87 48 -141 l39 -41 -55 -41 c-30
-23 -57 -42 -59 -42 -3 0 -24 30 -48 68 -24 37 -60 86 -80 108 -21 23 -44 55
-53 72 -8 16 -41 53 -73 81 -42 38 -54 54 -46 62 9 9 20 6 43 -11 36 -26 52
-20 25 10 -17 19 -17 20 0 26 10 4 26 2 36 -4 25 -16 30 -15 27 6 -2 11 4 17
17 18 11 0 30 5 42 12 32 18 36 16 61 -29 26 -45 41 -46 55 -3 11 32 25 54 37
54 3 0 5 -41 3 -90z"/>
<path d="M6165 5357 c-16 -8 -45 -26 -62 -41 -18 -15 -40 -26 -50 -25 -39 5
-85 -29 -88 -65 -2 -15 10 -29 42 -49 45 -28 83 -79 83 -111 0 -21 43 -111 64
-131 22 -23 97 -39 141 -31 75 14 125 100 125 216 0 32 4 40 18 40 17 0 18 8
15 71 -3 76 -13 99 -45 99 -10 0 -30 7 -43 16 -33 22 -161 29 -200 11z"/>
<path d="M7061 5157 c2 -1 13 -9 24 -17 19 -14 19 -14 6 3 -7 9 -18 17 -24 17
-6 0 -8 -1 -6 -3z"/>
<path d="M6790 5136 c0 -2 7 -17 15 -32 8 -16 15 -44 15 -63 0 -19 3 -31 7
-27 4 4 15 -8 26 -26 10 -18 15 -24 11 -13 -4 11 -9 48 -9 83 -1 34 -4 64 -6
66 -7 6 -59 17 -59 12z"/>
<path d="M8390 4737 c0 -7 82 -133 100 -154 6 -7 8 -13 5 -13 -3 0 6 -18 20
-40 14 -21 50 -92 81 -157 86 -182 105 -220 99 -197 -3 13 2 27 16 40 79 71
58 156 -51 205 -27 12 -53 31 -56 42 -15 47 -78 138 -143 206 -39 41 -71 72
-71 68z"/>
<path d="M8700 4135 c0 -5 5 -17 10 -25 5 -8 10 -10 10 -5 0 6 -5 17 -10 25
-5 8 -10 11 -10 5z"/>
<path d="M8409 1131 c-8 -22 -24 -35 -67 -54 -31 -14 -67 -28 -79 -32 -13 -3
-23 -11 -23 -16 0 -20 -30 -20 -56 0 -36 28 -84 28 -84 1 0 -30 -49 -55 -182
-97 -101 -32 -117 -40 -123 -61 -3 -13 -3 -27 0 -31 9 -8 462 -7 471 2 4 4 6
27 6 52 l-2 45 154 0 c180 0 174 -4 156 102 -14 78 -24 98 -41 81 -9 -9 -19
-7 -41 12 -41 35 -76 33 -89 -4z"/>
<path d="M8923 1128 c-5 -7 -13 -21 -16 -30 -7 -21 -56 -46 -157 -82 -88 -32
-100 -41 -100 -72 l0 -24 217 2 c251 3 234 -5 212 111 -11 61 -15 68 -33 63
-12 -3 -28 2 -41 14 -27 25 -69 35 -82 18z"/>
<path d="M4460 1058 c-19 -12 -44 -23 -55 -23 -16 0 -22 -11 -32 -65 -7 -36
-10 -75 -8 -87 l5 -23 240 0 c230 0 240 1 240 19 0 28 -25 49 -73 61 -145 38
-234 79 -239 112 -4 31 -35 33 -78 6z"/>
<path d="M5100 1073 c-8 -3 -23 -13 -34 -22 -10 -9 -28 -16 -40 -16 -18 0 -23
-10 -35 -71 -8 -39 -11 -78 -8 -87 6 -15 32 -17 248 -17 216 0 241 2 235 16
-3 9 -6 22 -6 29 0 9 -47 29 -127 54 -134 43 -159 56 -177 93 -12 24 -30 31
-56 21z"/>
<path d="M5907 1073 c-4 -3 -7 -15 -7 -25 0 -23 -85 -64 -200 -98 -76 -22
-100 -39 -100 -72 0 -17 13 -18 238 -16 l237 3 3 38 c3 33 -15 147 -22 147 -2
0 -20 -7 -41 -16 -46 -19 -65 -13 -65 21 0 18 -5 25 -18 25 -10 0 -22 -3 -25
-7z"/>
<path d="M6640 1055 c0 -34 -19 -40 -65 -21 -21 9 -39 16 -40 16 -2 0 -8 -21
-14 -47 -33 -152 -48 -143 240 -143 214 0 229 1 229 18 0 34 -25 50 -115 78
-122 36 -183 68 -187 96 -2 15 -11 24 -25 26 -19 3 -23 -1 -23 -23z"/>
<path d="M7427 1043 c-4 -3 -7 -14 -7 -23 0 -21 -78 -57 -203 -95 -67 -20 -90
-32 -97 -48 -4 -13 -4 -26 2 -32 12 -13 425 -17 456 -5 25 11 28 43 8 125 -10
43 -15 50 -34 48 -12 -2 -31 6 -42 17 -19 19 -69 27 -83 13z"/>
</g>
</svg>
